<svg width="160" height="128" viewBox="0 0 160 128" fill="none" xmlns="http://www.w3.org/2000/svg">
<path d="M1.74368 1.76216C4.09359 -0.56239 7.89344 -0.56239 10.2433 1.76216L39.9922 31.5063V22.0082C39.9922 18.6839 42.6671 16.0094 45.992 16.0094C49.3168 16.0094 51.9917 18.6839 51.9917 22.0082V46.0035C51.9917 49.3279 49.3168 52.0023 45.992 52.0023H21.9929C18.668 52.0023 15.9931 49.3279 15.9931 46.0035C15.9931 42.6792 18.668 40.0047 21.9929 40.0047H31.5175L1.74368 10.2605C-0.581227 7.91096 -0.581227 4.1117 1.74368 1.76216ZM158.238 1.76216C160.587 4.1117 160.587 7.91096 158.238 10.2355L128.489 39.9797H138.013C141.338 39.9797 144.013 42.6542 144.013 45.9785C144.013 49.3029 141.338 51.9774 138.013 51.9774H114.014C110.689 51.9774 108.015 49.3029 108.015 45.9785V21.9832C108.015 18.6589 110.689 15.9844 114.014 15.9844C117.339 15.9844 120.014 18.6589 120.014 21.9832V31.5063L149.738 1.76216C152.088 -0.587385 155.888 -0.587385 158.213 1.76216H158.238ZM63.9912 64C63.9912 59.7574 65.6769 55.6885 68.6774 52.6885C71.6778 49.6885 75.7473 48.0031 79.9906 48.0031C84.2339 48.0031 88.3034 49.6885 91.3039 52.6885C94.3044 55.6885 95.99 59.7574 95.99 64C95.99 68.2426 94.3044 72.3115 91.3039 75.3115C88.3034 78.3115 84.2339 79.9969 79.9906 79.9969C75.7473 79.9969 71.6778 78.3115 68.6774 75.3115C65.6769 72.3115 63.9912 68.2426 63.9912 64ZM107.99 105.992V81.9965C107.99 78.6721 110.664 75.9977 113.989 75.9977H137.988C141.313 75.9977 143.988 78.6721 143.988 81.9965C143.988 85.3208 141.313 87.9953 137.988 87.9953H128.464L158.238 117.74C160.587 120.089 160.587 123.888 158.238 126.213C155.888 128.537 152.088 128.562 149.763 126.213L120.014 96.4687V105.992C120.014 109.316 117.339 111.991 114.014 111.991C110.689 111.991 108.015 109.316 108.015 105.992H107.99ZM51.9917 105.992C51.9917 109.316 49.3168 111.991 45.992 111.991C42.6671 111.991 39.9922 109.316 39.9922 105.992V96.4687L10.2433 126.238C7.89344 128.587 4.09359 128.587 1.76868 126.238C-0.556228 123.888 -0.581227 120.089 1.76868 117.765L31.5175 88.0203L21.9929 87.9953C18.668 87.9953 15.9931 85.3208 15.9931 81.9965C15.9931 78.6721 18.668 75.9977 21.9929 75.9977H45.992C49.3168 75.9977 51.9917 78.6721 51.9917 81.9965V105.992Z" fill="url(#paint0_linear_588_336)"/>
<defs>
<linearGradient id="paint0_linear_588_336" x1="0" y1="64" x2="160" y2="64" gradientUnits="userSpaceOnUse">
<stop stop-color="#E53D2B"/>
<stop offset="0.2" stop-color="#F98738"/>
<stop offset="0.4" stop-color="#F9D549"/>
<stop offset="0.6" stop-color="white"/>
<stop offset="0.8" stop-color="#2BCCF2"/>
<stop offset="1" stop-color="#2847D6"/>
</linearGradient>
</defs>
</svg>
