<svg width="160" height="160" viewBox="0 0 160 160" fill="none" xmlns="http://www.w3.org/2000/svg">
<path d="M45 5C45 2.25 42.75 0 40 0C37.25 0 35 2.25 35 5V10H30C27.25 10 25 12.25 25 15C25 17.75 27.25 20 30 20H35V30H20.9062C13.5 30 7.5 36 7.5 43.4062C7.5 44.875 7.75 46.3438 8.21875 47.7188L14.3438 65.6875C11.7813 66.9062 10 69.5 10 72.5C10 76.125 12.5625 79.1562 16 79.8438L15.3438 110H30.3438L31 80H49L49.6562 110H64.6562L64 79.8438C67.4062 79.1562 70 76.125 70 72.5C70 69.5 68.2188 66.9062 65.6562 65.6875L71.7812 47.7188C72.25 46.3125 72.5 44.875 72.5 43.4062C72.5 36 66.5 30 59.0938 30H45V20H50C52.75 20 55 17.75 55 15C55 12.25 52.75 10 50 10H45V5ZM50.0625 65H29.9375L23.125 45H56.875L50.0625 65ZM21.625 135H58.375L63.5625 145H16.4688L21.6562 135H21.625ZM18.5938 120C14.8438 120 11.4375 122.094 9.71875 125.406L1.4375 141.406C0.5 143.219 0 145.219 0 147.25C0 154.312 5.6875 160 12.75 160H60H67.25H92.4062H99.9688H147.531C154.406 160 159.969 154.438 159.969 147.562C159.969 145.438 159.438 143.375 158.406 141.531L148.594 123.844C147.281 121.469 144.75 120 142.031 120H97.9062C95.1875 120 92.6875 121.469 91.3438 123.844L81.5625 141.531C80.5625 143.344 80 145.406 80 147.5C80 147.438 80 147.344 80 147.25C80 145.219 79.5 143.219 78.5625 141.406L70.2812 125.406C68.5625 122.094 65.125 120 61.4062 120H18.5938ZM80 57.5V80C80 81.5625 80.5 83.0938 81.4062 84.3438L92.5 99.9062V110H107.5V97.5C107.5 95.9375 107 94.4062 106.094 93.1562L95 77.5938V65H105V70C105 72.75 107.25 75 110 75C112.75 75 115 72.75 115 70V65H125V70C125 72.75 127.25 75 130 75C132.75 75 135 72.75 135 70V65H145V77.5938L133.906 93.125C133 94.4062 132.5 95.9062 132.5 97.4688V109.969H147.5V99.875L158.594 84.3438C159.5 83.0625 160 81.5625 160 80V57.5C160 53.3438 156.656 50 152.5 50H87.5C83.3438 50 80 53.3438 80 57.5ZM96.8125 145L102.375 135H137.656L143.219 145H96.8125Z" fill="url(#paint0_linear_588_455)"/>
<defs>
<linearGradient id="paint0_linear_588_455" x1="0" y1="80" x2="160" y2="80" gradientUnits="userSpaceOnUse">
<stop stop-color="#E53D2B"/>
<stop offset="0.2" stop-color="#F98738"/>
<stop offset="0.4" stop-color="#F9D549"/>
<stop offset="0.6" stop-color="white"/>
<stop offset="0.8" stop-color="#2BCCF2"/>
<stop offset="1" stop-color="#2847D6"/>
</linearGradient>
</defs>
</svg>
