<svg width="160" height="142" viewBox="0 0 160 142" fill="none" xmlns="http://www.w3.org/2000/svg">
<path d="M17.7778 13.3125C15.3333 13.3125 13.3333 15.3094 13.3333 17.75V115.375C13.3333 117.816 15.3333 119.812 17.7778 119.812H142.222C144.667 119.812 146.667 117.816 146.667 115.375V17.75C146.667 15.3094 144.667 13.3125 142.222 13.3125H17.7778ZM0 17.75C0 7.95977 7.97222 0 17.7778 0H142.222C152.028 0 160 7.95977 160 17.75V115.375C160 125.165 152.028 133.125 142.222 133.125V135.344C142.222 139.032 139.25 142 135.556 142C131.861 142 128.889 139.032 128.889 135.344V133.125H31.1111V135.344C31.1111 139.032 28.1389 142 24.4444 142C20.75 142 17.7778 139.032 17.7778 135.344V133.125C7.97222 133.125 0 125.165 0 115.375V17.75ZM88.8889 66.5625C88.8889 63.0661 88.1991 59.6038 86.859 56.3736C85.5189 53.1433 83.5546 50.2081 81.0784 47.7358C78.6022 45.2634 75.6625 43.3022 72.4271 41.9642C69.1918 40.6262 65.7241 39.9375 62.2222 39.9375C58.7203 39.9375 55.2527 40.6262 52.0173 41.9642C48.782 43.3022 45.8423 45.2634 43.366 47.7358C40.8898 50.2081 38.9256 53.1433 37.5854 56.3736C36.2453 59.6038 35.5556 63.0661 35.5556 66.5625C35.5556 70.0589 36.2453 73.5212 37.5854 76.7514C38.9256 79.9817 40.8898 82.9169 43.366 85.3892C45.8423 87.8616 48.782 89.8228 52.0173 91.1608C55.2527 92.4988 58.7203 93.1875 62.2222 93.1875C65.7241 93.1875 69.1918 92.4988 72.4271 91.1608C75.6625 89.8228 78.6022 87.8616 81.0784 85.3892C83.5546 82.9169 85.5189 79.9817 86.859 76.7514C88.1991 73.5212 88.8889 70.0589 88.8889 66.5625ZM22.2222 66.5625C22.2222 61.3178 23.2569 56.1245 25.267 51.2791C27.2772 46.4336 30.2236 42.031 33.938 38.3224C37.6523 34.6139 42.0619 31.6721 46.9149 29.6651C51.7679 27.658 56.9693 26.625 62.2222 26.625C67.4751 26.625 72.6765 27.658 77.5296 29.6651C82.3826 31.6721 86.7922 34.6139 90.5065 38.3224C94.2208 42.031 97.1672 46.4336 99.1774 51.2791C101.188 56.1245 102.222 61.3178 102.222 66.5625C102.222 71.8072 101.188 77.0005 99.1774 81.8459C97.1672 86.6914 94.2208 91.094 90.5065 94.8026C86.7922 98.5111 82.3826 101.453 77.5296 103.46C72.6765 105.467 67.4751 106.5 62.2222 106.5C56.9693 106.5 51.7679 105.467 46.9149 103.46C42.0619 101.453 37.6523 98.5111 33.938 94.8026C30.2236 91.094 27.2772 86.6914 25.267 81.8459C23.2569 77.0005 22.2222 71.8072 22.2222 66.5625ZM62.2222 53.25C65.7584 53.25 69.1498 54.6526 71.6503 57.1491C74.1508 59.6457 75.5556 63.0318 75.5556 66.5625C75.5556 70.0932 74.1508 73.4793 71.6503 75.9759C69.1498 78.4724 65.7584 79.875 62.2222 79.875C58.686 79.875 55.2946 78.4724 52.7941 75.9759C50.2936 73.4793 48.8889 70.0932 48.8889 66.5625C48.8889 63.0318 50.2936 59.6457 52.7941 57.1491C55.2946 54.6526 58.686 53.25 62.2222 53.25ZM137.778 48.8125C137.778 53.7492 135.083 58.048 131.111 60.35V90.9688C131.111 94.6574 128.139 97.625 124.444 97.625C120.75 97.625 117.778 94.6574 117.778 90.9688V60.35C113.806 58.048 111.111 53.7492 111.111 48.8125C111.111 41.4629 117.083 35.5 124.444 35.5C131.806 35.5 137.778 41.4629 137.778 48.8125Z" fill="url(#paint0_linear_588_358)"/>
<defs>
<linearGradient id="paint0_linear_588_358" x1="0" y1="71" x2="160" y2="71" gradientUnits="userSpaceOnUse">
<stop stop-color="#E53D2B"/>
<stop offset="0.2" stop-color="#F98738"/>
<stop offset="0.4" stop-color="#F9D549"/>
<stop offset="0.6" stop-color="white"/>
<stop offset="0.8" stop-color="#2BCCF2"/>
<stop offset="1" stop-color="#2847D6"/>
</linearGradient>
</defs>
</svg>
