<svg width="132" height="40" viewBox="0 0 132 40" fill="none" xmlns="http://www.w3.org/2000/svg">
<g clip-path="url(#clip0_587_318)">
<path d="M44.0607 21.2064L40.0786 13.181C39.5431 12.1079 38.453 11.4286 37.2622 11.4286H18.4168C16.6778 11.4286 15.2664 10.0063 15.2664 8.25397V7.61905C15.2664 5.86667 16.6778 4.44444 18.4168 4.44444H25.9776C27.7166 4.44444 29.128 5.86667 29.128 7.61905V7.93651H33.5385V3.1746C33.5385 1.42222 32.1271 0 30.3881 0H14.0063C12.2673 0 10.8559 1.42222 10.8559 3.1746V11.4286H7.13218C5.94135 11.4286 4.84502 12.1079 4.31576 13.181L0.333708 21.2064C-0.17665 22.2286 -0.101041 23.4413 0.52903 24.3873L9.9171 38.5841C10.5031 39.4667 11.486 40 12.5382 40H31.8499C32.9021 40 33.8913 39.4667 34.471 38.5841L43.8654 24.3873C44.4891 23.4413 44.5647 22.2286 44.0607 21.2064ZM25.9776 30.4762H18.4168L20.5086 26.2603C19.2674 25.6381 18.4168 24.3492 18.4168 22.8571C18.4168 20.7556 20.1117 19.0476 22.1972 19.0476C24.2827 19.0476 25.9776 20.7556 25.9776 22.8571C25.9776 24.3492 25.127 25.6381 23.8858 26.2603L25.9776 30.4762Z" fill="white"/>
<path d="M59.1448 13.2571H62.5724V26.2857H69.7615V29.2571H59.1448V13.2571Z" fill="white"/>
<path d="M73.208 28.6794C72.2881 28.1714 71.5698 27.4603 71.0532 26.5524C70.5365 25.6444 70.2845 24.6286 70.2845 23.4984C70.2845 22.3682 70.5428 21.3524 71.0532 20.4444C71.5698 19.5365 72.2881 18.8317 73.208 18.3174C74.1279 17.8095 75.1675 17.5492 76.3143 17.5492C77.461 17.5492 78.5006 17.8032 79.4205 18.3174C80.3404 18.8254 81.0587 19.5365 81.5754 20.4444C82.092 21.3524 82.3441 22.3682 82.3441 23.4984C82.3441 24.6286 82.0857 25.6444 81.5754 26.5524C81.0587 27.4603 80.3404 28.1651 79.4205 28.6794C78.5006 29.1873 77.461 29.4476 76.3143 29.4476C75.1675 29.4476 74.1279 29.1936 73.208 28.6794ZM78.3746 25.8095C78.9039 25.2127 79.1685 24.4444 79.1685 23.4984C79.1685 22.5524 78.9039 21.7587 78.3746 21.1682C77.8453 20.5714 77.1586 20.2794 76.308 20.2794C75.4574 20.2794 74.7706 20.5778 74.2413 21.1682C73.7121 21.7651 73.4474 22.5397 73.4474 23.4984C73.4474 24.4571 73.7121 25.2127 74.2413 25.8095C74.7706 26.4063 75.4574 26.6984 76.308 26.6984C77.1586 26.6984 77.8453 26.4 78.3746 25.8095Z" fill="white"/>
<path d="M86.4962 28.6667C85.6015 28.146 84.9148 27.4349 84.4233 26.527C83.9319 25.619 83.6861 24.6095 83.6861 23.4984C83.6861 22.3873 83.9319 21.3778 84.4233 20.4698C84.9148 19.5619 85.6078 18.8508 86.4962 18.3301C87.3909 17.8095 88.418 17.5555 89.5836 17.5555C90.5791 17.5555 91.4927 17.746 92.3181 18.127C93.1435 18.5079 93.8051 19.0413 94.3154 19.727C94.8195 20.4127 95.103 21.1873 95.166 22.0571H91.9905C91.9023 21.5365 91.6376 21.1111 91.1966 20.7746C90.7555 20.4381 90.2515 20.273 89.6781 20.273C88.8338 20.273 88.1722 20.5714 87.6934 21.1619C87.2145 21.7587 86.9814 22.5333 86.9814 23.4921C86.9814 24.4508 87.2208 25.2254 87.706 25.8095C88.1911 26.3936 88.8653 26.6921 89.7222 26.6921C90.2956 26.6921 90.7933 26.5333 91.2218 26.2095C91.6439 25.892 91.9149 25.473 92.0409 24.9524H95.2416C95.1345 25.7905 94.8195 26.5524 94.3028 27.2381C93.7799 27.9238 93.1057 28.4635 92.2866 28.8508C91.4612 29.2381 90.5665 29.4349 89.5962 29.4349C88.4306 29.4349 87.4035 29.1746 86.5088 28.6603L86.4962 28.6667Z" fill="white"/>
<path d="M97.0436 12.7365H100.219V21.6508L104.189 17.7397H108.183L103.622 22.2667L108.542 29.2635H104.731L101.486 24.3937L100.213 25.6508V29.2635H97.0373V12.7365H97.0436Z" fill="white"/>
<path d="M110.867 28.5841C109.985 28.0127 109.311 27.2698 108.857 26.3555C108.404 25.4413 108.177 24.4825 108.177 23.473C108.177 22.4635 108.385 21.4921 108.801 20.5905C109.217 19.6889 109.853 18.9587 110.704 18.3936C111.56 17.8286 112.6 17.5492 113.822 17.5492C115.045 17.5492 116.154 17.8222 116.998 18.3746C117.842 18.9206 118.466 19.6254 118.869 20.4762C119.273 21.327 119.468 22.2286 119.468 23.1746C119.468 23.5238 119.455 23.8667 119.424 24.2032H111.214C111.334 25.0286 111.642 25.6698 112.134 26.1333C112.625 26.5968 113.262 26.8317 114.049 26.8317C114.686 26.8317 115.209 26.7047 115.612 26.4571C116.021 26.2032 116.286 25.8349 116.406 25.346H119.493C119.266 26.5778 118.655 27.5682 117.653 28.3174C116.651 29.0667 115.454 29.4349 114.049 29.4349C112.808 29.4349 111.75 29.1492 110.861 28.5778L110.867 28.5841ZM116.324 22.1968C116.28 21.5238 116.034 20.9714 115.599 20.5397C115.158 20.1079 114.572 19.8857 113.829 19.8857C113.085 19.8857 112.531 20.0698 112.102 20.4444C111.68 20.819 111.397 21.4032 111.264 22.1905H116.324V22.1968Z" fill="white"/>
<path d="M125.214 21.2571C124.836 21.8349 124.647 22.6349 124.647 23.6571V29.2571H121.497V17.7397H124.647V19.6571C124.949 18.9587 125.321 18.4635 125.769 18.1714C126.216 17.8794 126.802 17.7397 127.526 17.7397H128.799V20.3937H126.915C126.159 20.3937 125.592 20.6857 125.214 21.2635V21.2571Z" fill="white"/>
<path d="M132 25.9683V29.2572H128.598V25.9683H132Z" fill="white"/>
</g>
<defs>
<clipPath id="clip0_587_318">
<rect width="132" height="40" fill="white"/>
</clipPath>
</defs>
</svg>
